<?xml version="1.0" standalone="no"?>
<!DOCTYPE svg PUBLIC "-//W3C//DTD SVG 20010904//EN"
 "http://www.w3.org/TR/2001/REC-SVG-20010904/DTD/svg10.dtd">
<svg version="1.0" xmlns="http://www.w3.org/2000/svg"
 width="512.000000pt" height="512.000000pt" viewBox="0 0 512.000000 512.000000"
 preserveAspectRatio="xMidYMid meet">
<metadata>
Created by potrace 1.11, written by Peter Selinger 2001-2013
</metadata>
<g transform="translate(0.000000,512.000000) scale(0.100000,-0.100000)"
fill="#000000" stroke="none">
<path d="M371 5104 c-160 -43 -301 -181 -351 -342 -20 -63 -20 -97 -20 -2196
0 -1426 4 -2146 11 -2176 40 -176 203 -339 379 -379 30 -7 740 -11 2170 -11
1739 0 2134 3 2175 14 180 47 323 190 370 367 13 46 15 370 15 2182 l0 2128
-25 76 c-32 93 -81 169 -149 229 -56 50 -147 97 -216 113 -30 7 -747 10 -2175
10 -1829 0 -2138 -2 -2184 -15z m2617 -869 c485 -68 790 -292 873 -640 28
-120 28 -299 0 -408 -47 -180 -166 -334 -348 -449 -34 -22 -63 -41 -63 -43 0
-1 28 -20 63 -42 233 -147 384 -339 434 -552 14 -59 18 -118 18 -271 0 -188
-1 -198 -28 -275 -124 -353 -456 -588 -947 -670 -133 -23 -431 -31 -572 -16
-337 37 -758 169 -997 314 -101 61 -222 172 -250 231 -29 60 -27 110 5 143 24
24 30 25 92 19 37 -3 113 -17 169 -29 57 -13 103 -21 103 -18 3 177 34 462 71
646 103 510 263 966 424 1210 119 180 281 277 332 198 16 -23 18 -51 17 -198
0 -228 -24 -372 -183 -1120 -38 -176 -43 -216 -65 -555 -13 -201 -23 -366 -22
-367 2 -2 52 -14 112 -27 307 -70 499 -58 704 42 216 105 320 280 320 536 0
261 -56 459 -163 579 l-42 48 -60 -12 c-73 -14 -269 -6 -342 14 -138 39 -202
121 -173 226 23 87 115 136 290 154 78 8 129 7 199 -1 91 -12 95 -12 117 9 29
28 78 120 99 189 25 83 32 289 12 367 -37 143 -113 237 -241 297 -137 65 -308
88 -546 74 -220 -13 -386 -62 -656 -193 -87 -43 -176 -84 -198 -91 -47 -17
-138 -18 -154 -2 -58 58 122 290 335 431 227 151 460 236 728 267 110 12 396
4 533 -15z"/>
</g>
</svg>
